Coordinates
version=1
nRows=16
nColumns=28
inDegrees=yes

Units are S.I. units (second, meters, Newtons, ...)
Angles are in degrees.

endheader
time	pelvis_tilt	pelvis_list	pelvis_rotation	pelvis_tx	pelvis_ty	pelvis_tz	hip_flexion_r	hip_adduction_r	hip_rotation_r	knee_angle_r	ankle_angle_r	subtalar_angle_r	mtp_angle_r	hip_flexion_l	hip_adduction_l	hip_rotation_l	knee_angle_l	socket_flexion	socket_adduction	socket_rotation	socket_tx	socket_ty	socket_tz	foot_flex	lumbar_extension	lumbar_bending	lumbar_rotation
      0.00000000	     -0.55557123	     -7.86938498	     -7.47120234	     -0.91177143	      0.98902336	      0.31495038	    -25.77712620	      9.63777413	      4.81208177	     -3.15950353	      5.93127744	     -4.23132110	     11.40192822	     26.44460934	    -10.69568606	      7.82032532	      1.40387286	      5.17683059	      0.00000000	      0.00000000	      0.00000000	     -0.00063073	      0.00000000	     -0.52116342	    -11.30906091	      6.23762326	     10.96938704
      0.00416667	     -0.61176866	     -7.93812655	     -7.75585090	     -0.90609835	      0.98843822	      0.31514143	    -25.69209004	      9.56191803	      4.74756626	     -3.84073690	      5.68244159	     -4.16783182	     12.27442333	     25.84121742	    -10.87279119	      7.64069488	      2.28340862	      5.65962017	      0.00000000	      0.00000000	      0.00000000	     -0.00104444	      0.00000000	     -0.82106331	    -11.23941523	      6.25733358	     11.15628783
      0.00833333	     -0.64930016	     -8.01010511	     -7.78895452	     -0.90035219	      0.98772439	      0.31486795	    -25.71906412	      9.58187621	      4.68280135	     -4.31525031	      5.47248547	     -4.22590376	     12.35464553	     25.59338320	    -10.87887818	      7.69866112	      2.29175698	      5.62561422	      0.00000000	      0.00000000	      0.00000000	     -0.00160621	      0.00000000	     -1.14528956	    -11.19128973	      6.31255511	     11.17978816
      0.01250000	     -0.71514505	     -8.09569468	     -7.80946684	     -0.89443667	      0.98696622	      0.31459979	    -25.71246573	      9.62818838	      4.68170357	     -4.82902272	      5.30880793	     -4.27749786	     12.42913885	     25.35825112	    -10.89805299	      7.79848104	      2.35082864	      5.63147366	      0.00000000	      0.00000000	      0.00000000	     -0.00214492	      0.00000000	     -1.48998503	    -11.12374262	      6.37161133	     11.21041084
      0.01666667	     -0.79531658	     -8.13209773	     -7.77756792	     -0.88803210	      0.98611324	      0.31429201	    -25.82224946	      9.64219442	      4.74472302	     -5.10544175	      5.24307783	     -4.28107171	     12.43970414	     25.15069302	    -10.83518989	      7.87510808	      2.31878436	      5.60892933	      0.00000000	      0.00000000	      0.00000000	     -0.00280884	      0.00000000	     -1.58716739	    -10.94714941	      6.39815713	     11.21567669
      0.02083333	     -0.88666904	     -8.30560670	     -7.90860103	     -0.88205154	      0.98540392	      0.31406718	    -25.61154143	      9.72894482	      4.63884068	     -5.98906295	      4.91818680	     -4.41258978	     12.53155861	     24.85224601	    -11.00314546	      8.01813941	      2.53903583	      5.69244666	      0.00000000	      0.00000000	      0.00000000	     -0.00352768	      0.00000000	     -2.16253296	    -10.93447920	      6.56405164	     11.28975037
      0.02500000	     -1.02821355	     -8.44474184	     -8.00734948	     -0.87568529	      0.98462663	      0.31386860	    -25.45982073	      9.80204253	      4.65111735	     -6.67572258	      4.70418716	     -4.48279459	     12.71120856	     24.58157128	    -11.13070601	      8.15716209	      2.78350086	      5.83007981	      0.00000000	      0.00000000	      0.00000000	     -0.00424723	      0.00000000	     -2.45697863	    -10.78303483	      6.69860699	     11.40787740
      0.02916667	     -1.33668834	     -8.55921656	     -8.25512437	     -0.86903112	      0.98367074	      0.31382363	    -25.13837784	      9.80806995	      4.81396438	     -7.38086568	      4.44836080	     -4.54959339	     13.47781685	     24.32281134	    -11.32706281	      8.23690134	      3.34171229	      6.16059333	      0.00000000	      0.00000000	      0.00000000	     -0.00504752	      0.00000000	     -2.74624012	    -10.40450046	      6.84046288	     11.75512354
      0.03333333	     -1.39241517	     -8.59473286	     -8.23776504	     -0.86259724	      0.98307900	      0.31353652	    -25.08025298	      9.82059816	      4.85929065	     -7.99590202	      4.13717030	     -4.60690648	     13.52068192	     24.07305760	    -11.27530201	      8.37641627	      3.33680451	      6.16924704	      0.00000000	      0.00000000	      0.00000000	     -0.00575649	      0.00000000	     -3.09040393	    -10.33729725	      6.79991836	     11.73090554
      0.03750000	     -1.47387608	     -8.65356020	     -8.27017561	     -0.85602520	      0.98247659	      0.31325936	    -24.94943530	      9.82667396	      4.82759253	     -8.70621927	      3.79023637	     -4.71875107	     13.58969451	     23.80248728	    -11.27595806	      8.50945882	      3.39832727	      6.22641497	      0.00000000	      0.00000000	      0.00000000	     -0.00659701	      0.00000000	     -3.40650184	    -10.23185900	      6.84894059	     11.72762474
      0.04166667	     -1.57866767	     -8.70560101	     -8.30593899	     -0.84943755	      0.98191574	      0.31293114	    -24.76945649	      9.82263876	      4.83558658	     -9.44721236	      3.42753924	     -4.83119142	     13.68102529	     23.54540114	    -11.27361670	      8.66922158	      3.49233942	      6.31057128	      0.00000000	      0.00000000	      0.00000000	     -0.00740599	      0.00000000	     -3.70601440	    -10.10125420	      6.87612359	     11.73414415
      0.04583333	     -1.64873669	     -8.71236581	     -8.24571034	     -0.84242568	      0.98134652	      0.31259204	    -24.81763204	      9.80542739	      4.96095989	     -9.83344856	      3.29310762	     -4.83466083	     13.69287306	     23.29142037	    -11.17896598	      8.81167211	      3.43899013	      6.31700821	      0.00000000	      0.00000000	      0.00000000	     -0.00844567	      0.00000000	     -3.80065514	     -9.89111254	      6.86664554	     11.72848419
      0.05000000	     -1.95166848	     -8.71660453	     -8.43621490	     -0.83599311	      0.98077754	      0.31254713	    -24.16398855	      9.74854857	      4.86371199	    -11.05063694	      2.55819726	     -5.17638478	     14.10070890	     23.12858074	    -11.24608933	      8.94947193	      3.82201753	      6.61830858	      0.00000000	      0.00000000	      0.00000000	     -0.00906333	      0.00000000	     -4.18698655	     -9.58458238	      6.82966156	     11.78850097
      0.05416667	     -2.01960222	     -8.67538244	     -8.40889487	     -0.82938102	      0.98049558	      0.31220353	    -24.00320765	      9.68483075	      5.01963980	    -11.75798087	      2.18776719	     -5.22813954	     14.16370559	     22.88467381	    -11.13084977	      9.16734449	      3.80224122	      6.66647942	      0.00000000	      0.00000000	      0.00000000	     -0.00982141	      0.00000000	     -4.45231942	     -9.47622203	      6.74132964	     11.75733287
      0.05833333	     -2.22714146	     -8.59451152	     -8.48305050	     -0.82263062	      0.98011882	      0.31199391	    -23.52851343	      9.55594774	      4.88387360	    -12.76111362	      1.52630382	     -5.51148978	     14.52021794	     22.71548488	    -11.02466076	      9.18892546	      3.91846719	      6.83480902	      0.00000000	      0.00000000	      0.00000000	     -0.01060162	      0.00000000	     -4.64871272	     -9.18079278	      6.65141967	     11.74592317
      0.06250000	     -2.45894793	     -8.44871939	     -8.50700815	     -0.81582006	      0.97976371	      0.31182907	    -23.06657659	      9.39770545	      4.86110716	    -13.66458118	      0.87797015	     -5.74232645	     15.17757755	     22.60809118	    -10.85330051	      9.32027046	      3.96356204	      6.95283439	      0.00000000	      0.00000000	      0.00000000	     -0.01127929	      0.00000000	     -4.86135783	     -8.81953792	      6.44247972	     11.70736423
